HIERARCHY
ROOT Hips
{
  OFFSET -187.679 86.5976 -156.378
  CHANNELS 6 Xposition Yposition Zposition Zrotation Xrotation Yrotation
  JOINT LeftUpLeg
  {
    OFFSET 8.64259 1.95398 -2.38835
    CHANNELS 3 Zrotation Xrotation Yrotation
    JOINT LeftLeg
    {
      OFFSET 43.7702 0 0
      CHANNELS 3 Zrotation Xrotation Yrotation
      JOINT LeftFoot
      {
        OFFSET 40.6238 0 0
        CHANNELS 3 Zrotation Xrotation Yrotation
        JOINT LeftToeBase
        {
          OFFSET 12.7242 0 0
          CHANNELS 3 Zrotation Xrotation Yrotation
          End Site
          {
            OFFSET 0 0 0
          }
        }
      }
    }
  }
  JOINT RightUpLeg
  {
    OFFSET -8.2249 1.95398 -2.59336
    CHANNELS 3 Zrotation Xrotation Yrotation
    JOINT RightLeg
    {
      OFFSET 43.5653 0 0
      CHANNELS 3 Zrotation Xrotation Yrotation
      JOINT RightFoot
      {
        OFFSET 40.6238 0 0
        CHANNELS 3 Zrotation Xrotation Yrotation
        JOINT RightToeBase
        {
          OFFSET 12.7242 0 0
          CHANNELS 3 Zrotation Xrotation Yrotation
          End Site
          {
            OFFSET 0 0 0
          }
        }
      }
    }
  }
  JOINT Spine
  {
    OFFSET 0.165834 0.87714 6.61349
    CHANNELS 3 Zrotation Xrotation Yrotation
    JOINT Spine1
    {
      OFFSET 7.38963 1.71661e-005 0
      CHANNELS 3 Zrotation Xrotation Yrotation
      JOINT Spine2
      {
        OFFSET 11.9445 1.14441e-005 0
        CHANNELS 3 Zrotation Xrotation Yrotation
        JOINT Spine3
        {
          OFFSET 14.7254 4.19617e-005 0
          CHANNELS 3 Zrotation Xrotation Yrotation
          JOINT Spine4
          {
            OFFSET 10.9679 0 0
            CHANNELS 3 Zrotation Xrotation Yrotation
            JOINT RightShoulder
            {
              OFFSET 2.46616 -1.6653 3.69651
              CHANNELS 3 Zrotation Xrotation Yrotation
              JOINT RightArm
              {
                OFFSET 13.0012 0 0
                CHANNELS 3 Zrotation Xrotation Yrotation
                JOINT RightForeArm
                {
                  OFFSET 28.7848 1.52588e-005 0
                  CHANNELS 3 Zrotation Xrotation Yrotation
                  JOINT RightHand
                  {
                    OFFSET 26.5688 1.52588e-005 0
                    CHANNELS 3 Zrotation Xrotation Yrotation
                    End Site
                    {
                      OFFSET 0 0 0
                    }
                  }
                }
              }
            }
            JOINT LeftShoulder
            {
              OFFSET 2.38034 -1.29275 -3.7523
              CHANNELS 3 Zrotation Xrotation Yrotation
              JOINT LeftArm
              {
                OFFSET 16.3182 6.10352e-005 0
                CHANNELS 3 Zrotation Xrotation Yrotation
                JOINT LeftForeArm
                {
                  OFFSET 27.0901 0 0
                  CHANNELS 3 Zrotation Xrotation Yrotation
                  JOINT LeftHand
                  {
                    OFFSET 24.5451 1.52588e-005 0
                    CHANNELS 3 Zrotation Xrotation Yrotation
                    End Site
                    {
                      OFFSET 0 0 0
                    }
                  }
                }
              }
            }
            JOINT Neck
            {
              OFFSET 5.0226 -0.0266342 0
              CHANNELS 3 Zrotation Xrotation Yrotation
              JOINT Head
              {
                OFFSET 6.69363 2.86102e-005 0
                CHANNELS 3 Zrotation Xrotation Yrotation
                End Site
                {
                  OFFSET 0 0 0
                }
              }
            }
          }
        }
      }
    }
  }
}
MOTION
Frames:	14
Frame Time:	0.0416667
-46.3335 54.02 38.1964 62.7169 43.0211 106.26 -24.3135 62.7976 -29.4004 -134.159 68.0639 13.7239 56.4322 -0.650957 9.31806 10.2876 5.8392 -26.8961 45.2087 50.8696 -169.073 -127.51 -1.79587 -6.19145 86.3578 -10.0464 -5.01495 16.0204 -5.24671 7.71624 0.470344 12.8389 -89.6658 1.19204 1.06543 0.686405 -10.4786 1.09461 0.638839 -33.0146 0.809882 0.974871 -13.0019 0.809889 0.974872 89.897 -35 -104.987 0.50986 9.52688 -67.5559 -14.2513 5.67412 -12.8762 -3.68344 0.32414 -17.9452 -89.5745 -23.7737 72.029 18.0347 -6.60604 -73.6229 7.83247 -10.0208 -5.7839 -11.8475 0.997858 -17.2178 18.9986 -2.43456 -5.24979 3.76497 -0.702397 1.02226 
-46.5049 53.8925 38.4646 62.304 43.3071 105.934 -25.2568 62.4318 -29.3162 -133.852 67.5892 13.4223 56.9785 -0.24426 9.53736 9.85247 5.41358 -26.1231 46.0592 52.4187 -168.56 -126.853 -0.26089 -6.04556 89.4822 -10.8038 -3.25058 18.3147 -4.78631 7.9636 0.420271 12.6885 -89.6762 1.4933 0.962533 0.659299 -10.1774 0.990604 0.61628 -32.713 0.719878 0.918081 -12.7004 0.7199 0.918092 89.5825 -35.4232 -105.421 -2.83568 8.55249 -67.3119 -13.8428 6.02723 -10.7114 -3.31633 0.276907 -17.7516 -90.2655 -25.043 71.1279 18.1651 -6.10695 -73.4165 7.70095 -10.4185 -4.90019 -11.825 0.951142 -16.7341 21.6709 -2.40095 -4.38466 1.791 -0.867675 0.329917 
-46.9082 54.0961 38.8045 61.2891 43.3494 106.089 -27.3048 62.2072 -28.5066 -133.496 67.9145 13.5835 57.8308 0.514094 11.0079 12.3771 5.13763 -24.752 47.7562 54.8046 -168.481 -124.948 3.16153 -5.16662 94.7263 -11.6963 0.778352 19.6536 -4.86914 9.02729 0.351318 12.4027 -89.6107 2.06458 0.852055 0.77799 -9.60629 0.885458 0.739729 -32.1408 0.57887 0.998079 -12.1281 0.57885 0.998087 89.4056 -36.164 -105.492 -4.7509 6.2285 -68.0778 -13.2674 5.53928 -8.16593 -2.93379 0.251083 -18.5864 -90.548 -24.5021 70.3288 18.4242 -3.79226 -72.4188 7.40722 -11.56 -4.48637 -14.8182 1.49787 -18.6438 24.2045 -2.76255 -4.9332 -0.068299 -0.905558 1.18383 
-47.2619 54.3254 39.0838 60.6933 43.8131 106.203 -28.9622 61.4769 -27.4665 -133.739 69.3879 14.2832 57.1662 0.411549 12.8518 12.5033 4.65932 -23.6576 47.5946 54.8436 -167.933 -124.01 4.60038 -5.01702 96.1385 -12.101 1.04851 19.1235 -5.4784 10.2289 0.325738 12.1577 -89.6129 2.55504 0.801872 0.76878 -9.11587 0.834906 0.73274 -31.6502 0.533756 0.97421 -11.6376 0.533746 0.974207 88.5362 -37.7542 -106.502 -8.57842 5.90403 -67.8339 -12.5055 2.76058 -5.59339 -5.27055 0.408412 -15.6083 -91.0855 -24.6721 69.3105 18.1617 -2.32674 -72.2977 7.26762 -10.0944 -3.41709 -16.053 1.67482 -18.7796 26.496 -3.21045 -5.60102 -0.766706 -0.960762 2.80742 
-47.4135 54.854 39.0838 60.0533 43.7847 107.332 -29.161 62.1602 -27.0821 -130.725 68.5741 12.359 58.0685 0.75735 10.9768 11.3728 5.45813 -25.6791 48.1276 54.986 -168.398 -123.223 2.73132 -4.78555 95.5149 -12.3704 -0.594279 18.1775 -5.45059 9.53857 0.399792 11.8812 -89.726 3.10869 0.907019 0.54251 -8.56203 0.930034 0.502072 -31.0979 0.702059 0.790035 -11.0853 0.702051 0.790031 87.4215 -38.9883 -108.018 -13.7295 5.05475 -66.3996 -11.6096 -0.977435 -4.19961 -2.83517 0.17772 -15.3683 -91.8094 -25.3817 68.1675 16.7727 -1.35765 -71.5849 7.66957 -7.28479 -4.22659 -16.8476 1.73559 -18.4283 27.3187 -3.47187 -5.55088 -0.336018 -1.16059 3.4982 
-47.7018 56.3701 39.205 58.294 43.6626 108.54 -30.8137 62.645 -25.7 -126.376 69.4599 9.96804 58.0307 0.944366 11.2438 9.41967 5.41471 -26.2428 47.9793 56.081 -168.405 -120.679 4.03371 -3.78096 94.448 -11.3089 2.37335 17.3411 -4.77825 7.36024 0.374352 11.6045 -89.7558 3.66287 0.845739 0.478788 -8.00788 0.865976 0.441089 -30.5438 0.662743 0.710834 -10.5312 0.662737 0.710839 87.2079 -39.1706 -108.32 -16.428 4.00997 -65.489 -11.1287 -0.0733324 -3.85288 -0.603166 -0.0407308 -16.7719 -92.1498 -26.0829 67.8054 17.0234 -0.822298 -71.3067 7.92478 -5.09095 -5.30971 -17.1605 1.79467 -18.5927 28.5703 -3.38839 -5.52211 -0.0285726 -1.02479 3.25616 
-47.9664 58.8485 39.4446 55.646 43.1144 110.482 -32.4885 64.3293 -25.016 -117.53 68.099 4.593 57.9303 0.688075 9.0383 10.4832 5.71158 -26.5719 48.918 57.7843 -168.402 -116.926 2.59428 -2.16919 92.4833 -11.0802 1.04893 17.6895 -4.79803 7.61593 0.358016 11.2946 -89.7301 4.2823 0.824902 0.522832 -7.38847 0.847116 0.486005 -29.9241 0.629637 0.746586 -9.91148 0.629637 0.746563 87.3708 -39.3151 -107.988 -15.0605 4.46483 -65.1965 -11.7302 -1.41596 -5.23892 -1.94586 0.104598 -16.1996 -92.0449 -25.5377 67.7687 17.6001 -0.615181 -70.7932 7.92046 -5.51814 -6.39208 -17.5944 1.94089 -19.2752 30.0779 -3.61106 -5.92917 0.874879 -0.970442 3.23012 
-48.3356 62.0119 39.4627 51.8363 42.419 112.695 -36.0551 66.382 -23.6507 -106.374 67.2678 -2.12212 58.5441 1.01072 7.8603 10.5364 4.52725 -23.9641 49.0815 60.2653 -168.043 -111.715 1.42927 -0.0687361 91.5997 -11.0175 0.679344 17.6599 -5.11222 8.3672 0.265027 10.8847 -89.6902 5.10237 0.657518 0.595732 -6.56853 0.683093 0.566222 -29.1033 0.448075 0.765812 -9.09066 0.448086 0.765801 86.9874 -40.124 -108.356 -17.573 3.85734 -64.3292 -11.5358 -0.647695 -5.80923 -1.30839 0.0440144 -16.497 -91.7636 -26.3081 68.6662 18.9488 -0.568347 -71.3156 7.85393 -4.68588 -7.10953 -16.912 1.70477 -18.1678 31.6359 -3.44266 -5.23787 1.82872 -1.00592 2.6294 
-48.6448 66.0526 39.6359 47.4047 41.3549 115.195 -40.5878 68.9339 -21.5513 -91.7177 68.9838 -10.932 58.4934 1.5074 9.19256 12.4933 2.7789 -19.5457 50.6365 63.18 -168.627 -104.647 -1.49342 2.72021 89.1898 -10.823 -1.03057 18.1786 -4.82193 7.96956 0.171618 10.4716 -89.6591 5.9289 0.485988 0.657277 -5.74208 0.514456 0.635246 -28.2762 0.265983 0.772942 -8.26357 0.265987 0.772951 86.9413 -39.9772 -108.487 -21.504 2.37907 -63.3345 -10.9546 1.62737 -6.51011 0.197715 -0.121506 -17.5041 -91.3258 -26.3241 69.5339 18.8988 -0.760854 -71.8878 7.50855 -7.09387 -7.30219 -16.5967 1.67076 -18.2279 34.9075 -3.16825 -4.3982 2.47153 -0.928573 2.83603 
-48.9775 70.7495 39.7082 42.7348 40.6824 117.864 -48.9986 72.3059 -17.0676 -78.5205 63.8774 -16.7427 59.831 2.57131 7.23954 13.1702 3.353 -20.4928 51.6259 66.9359 -168.979 -96.7699 -2.57167 5.97641 85.3705 -9.65614 -1.73566 18.4725 -4.53501 7.42509 0.0687253 10.0254 -89.6513 6.8218 0.286535 0.675326 -4.84929 0.315979 0.662058 -27.3831 0.0703295 0.730216 -7.37041 0.0703167 0.730206 86.7895 -40.1871 -108.67 -24.7471 0.860288 -61.1837 -10.79 4.58045 -8.5762 1.02111 -0.222797 -18.5869 -91.4071 -25.9801 69.2305 18.0149 -0.274166 -70.7534 7.95048 -7.89709 -9.48179 -18.7455 2.17951 -19.7771 38.1401 -3.3851 -3.78821 2.84611 -1.27417 2.77552 
-48.9536 75.5167 39.6219 39.1576 39.7018 119.644 -62.0548 75.8825 -7.41831 -65.3308 60.5209 -21.7376 60.27 3.0444 7.54999 17.5861 3.61194 -19.0534 56.7102 70.9719 -172.727 -88.1132 -0.0478624 9.18835 82.7535 -8.82251 -0.269649 18.1359 -4.6674 7.55969 0.0476947 9.57063 -89.6205 7.73121 0.260531 0.735551 -3.93988 0.292644 0.72337 -26.4734 0.027428 0.779854 -6.46074 0.0274235 0.779841 86.7836 -40.612 -108.527 -24.1555 -0.161009 -57.5297 -11.9198 4.23553 -14.2144 1.1391 -0.22546 -17.8136 -91.4089 -26.3949 69.4034 17.0553 0.242512 -69.0169 7.7662 -10.9042 -13.9112 -17.8072 2.15471 -20.616 40.3382 -3.64343 -3.77764 3.07773 -1.38732 3.6654 
-48.7978 80.2282 39.3992 36.4083 38.8664 121.045 -83.1013 78.7935 10.1785 -54.3809 56.6294 -23.7977 60.3173 2.9761 7.82287 19.5421 3.35696 -17.3866 66.5725 75.014 178.824 -79.0048 0.393462 11.8745 79.0976 -7.6163 -0.934193 17.597 -4.44674 6.69212 0.0357765 9.15013 -89.6074 8.5722 0.245198 0.760892 -3.09894 0.278459 0.74935 -25.6323 0.00518389 0.799397 -5.61965 0.0051976 0.799399 86.5888 -41.3233 -108.602 -23.4441 -1.4165 -53.8341 -10.8644 11.9782 -19.2114 -1.03298 0.00659245 -16.5528 -91.6067 -27.0369 69.2854 18.1493 2.85722 -66.2172 5.9955 -16.5945 -19.731 -18.7233 2.28956 -20.6187 42.4842 -3.548 -2.97253 3.16242 -1.64038 3.28533 
-48.6647 84.6629 39.0085 34.4993 38.3622 121.749 -114.723 79.7955 37.5036 -46.5947 51.2655 -21.8471 60.0487 2.43009 6.42936 20.201 3.06806 -16.2006 85.5081 78.2813 161.374 -69.5945 2.76512 13.8839 75.8075 -6.4324 -1.41301 16.9251 -4.69951 6.92793 -0.0122463 8.75935 -89.5806 9.35372 0.164084 0.818679 -2.31746 0.199965 0.810656 -24.8506 -0.0895442 0.83015 -4.83789 -0.0895248 0.83015 86.6002 -41.6189 -108.478 -21.0898 -3.54714 -50.4466 -10.7839 12.7349 -26.0149 2.50905 -0.390913 -18.3453 -91.5246 -27.6171 69.6871 14.9614 4.51986 -63.4269 5.24766 -17.5466 -25.2095 -18.9486 2.21188 -19.894 43.839 -3.24569 -2.36104 3.76037 -1.64895 2.72239 
-48.0993 88.5157 38.58 34.5771 38.0685 121.9 -145.717 77.6381 65.075 -41.3185 46.6913 -17.5266 59.9341 1.99079 5.02573 23.4439 2.62571 -12.8974 117.506 77.9077 131.272 -60.5376 5.84359 15.3822 72.5936 -5.17711 -1.02428 16.3434 -4.74481 6.70523 -0.0226975 8.45627 -89.6294 9.96039 0.123228 0.725699 -1.71075 0.155062 0.719557 -24.2443 -0.100567 0.729176 -4.23166 -0.100562 0.729178 86.7945 -40.9635 -108.385 -16.0098 -5.24639 -47.4161 -10.5508 13.5764 -32.1375 3.57747 -0.470892 -17.0151 -91.8874 -28.6348 69.4052 9.76365 5.85619 -58.7632 5.11428 -16.8448 -30.6801 -16.6641 1.65017 -17.9114 44.902 -2.79968 -1.54831 3.80047 -1.65633 2.30825 
